<svg viewBox="0 0 24 24" fill="none" xmlns="http://www.w3.org/2000/svg">
  <path d="M10.586 2.588a2.667 2.667 0 0 1 2.828 0l7.253 4.48c.428.265.666.626.666.998v8.868c0 .372-.238.733-.666.998l-7.253 4.48a2.667 2.667 0 0 1-2.828 0l-7.253-4.48c-.428-.265-.666-.626-.666-.998V8.066c0-.372.238-.733.666-.998l7.253-4.48Z" fill="#FCBF00"/>
  <path d="m12 12.934 8.333-4.868v8.868L12.666 21.4a2.667 2.667 0 0 1-1.332.367V12.934Z" fill="#12BFFF"/>
  <path d="M12 12.934 3.667 8.066v8.868l7.253 4.48c.4.247.856.373 1.08.382V12.934Z" fill="#F82B60"/>
  <path d="m12 2.176.666.412L20.333 7.2 12 12.067 3.667 7.2l8.333-5.024Z" fill="#FCBF00"/>
</svg>
