<svg viewBox="0 0 24 24" fill="none" xmlns="http://www.w3.org/2000/svg">
  <path d="M2.716 17.01c-.214.352-.45.755-.666 1.093a.667.667 0 0 0 .214.908l3.955 2.448c.154.094.335.133.512.11a.667.667 0 0 0 .448-.285c.17-.278.393-.628.647-1.014 1.53-2.338 3.052-2.091 5.767-.785l3.864 1.864c.317.155.704.057.905-.232l2.293-3.303a.667.667 0 0 0-.186-.923c-1.063-.711-2.818-1.872-4.673-3.105-4.607-3.062-8.57-2.338-13.08 3.224Z" fill="url(#confluence-a)"/>
  <path d="M21.284 6.99c.214-.352.45-.755.666-1.093a.667.667 0 0 0-.214-.908L17.781 2.54a.667.667 0 0 0-.96.175c-.17.278-.393.628-.647 1.014-1.53 2.338-3.052 2.091-5.767.785L6.543 2.65a.667.667 0 0 0-.905.232L3.345 6.185a.667.667 0 0 0 .186.923c1.063.711 2.818 1.872 4.673 3.105 4.607 3.062 8.57 2.338 13.08-3.224Z" fill="url(#confluence-b)"/>
  <defs>
    <linearGradient id="confluence-a" x1="20.7" y1="21.2" x2="7.5" y2="13.5" gradientUnits="userSpaceOnUse">
      <stop stop-color="#0052CC"/>
      <stop offset="1" stop-color="#2684FF"/>
    </linearGradient>
    <linearGradient id="confluence-b" x1="3.3" y1="2.8" x2="16.5" y2="10.5" gradientUnits="userSpaceOnUse">
      <stop stop-color="#0052CC"/>
      <stop offset="1" stop-color="#2684FF"/>
    </linearGradient>
  </defs>
</svg>
