<svg viewBox="0 0 24 24" fill="none" xmlns="http://www.w3.org/2000/svg">
  <path d="M8.5 24c2.21 0 4-1.79 4-4v-4h-4c-2.21 0-4 1.79-4 4s1.79 4 4 4Z" fill="#0ACF83"/>
  <path d="M4.5 12c0-2.21 1.79-4 4-4h4v8h-4c-2.21 0-4-1.79-4-4Z" fill="#A259FF"/>
  <path d="M4.5 4c0-2.21 1.79-4 4-4h4v8h-4c-2.21 0-4-1.79-4-4Z" fill="#F24E1E"/>
  <path d="M12.5 0h4c2.21 0 4 1.79 4 4s-1.79 4-4 4h-4V0Z" fill="#FF7262"/>
  <path d="M20.5 12c0 2.21-1.79 4-4 4s-4-1.79-4-4 1.79-4 4-4 4 1.79 4 4Z" fill="#1ABCFE"/>
</svg>
