<svg viewBox="0 0 24 24" fill="none" xmlns="http://www.w3.org/2000/svg">
  <path d="M2.25 6.75V18a1.5 1.5 0 0 0 1.5 1.5h1.5V8.625l6.75 5.063 6.75-5.063V19.5h1.5a1.5 1.5 0 0 0 1.5-1.5V6.75L20.625 4.5H3.375L2.25 6.75Z" fill="#EA4335"/>
  <path d="M2.25 6.75V18a1.5 1.5 0 0 0 1.5 1.5h1.5V8.625l6.75 5.063V4.5H3.375L2.25 6.75Z" fill="#4285F4"/>
  <path d="M12 4.5v9.188l6.75-5.063V19.5h1.5a1.5 1.5 0 0 0 1.5-1.5V6.75L20.625 4.5H12Z" fill="#34A853"/>
  <path d="M2.25 6.75 12 13.688 21.75 6.75 20.625 4.5H3.375L2.25 6.75Z" fill="#FBBC05"/>
</svg>
