<svg viewBox="0 0 24 24" fill="none" xmlns="http://www.w3.org/2000/svg">
  <path d="M3.137 10.987a.748.748 0 0 0-.107.556c.532 3.63 3.297 6.395 6.927 6.927a.748.748 0 0 0 .556-.107l9.381-6.256a.75.75 0 0 0 .106-1.174l-8.926-8.926a.75.75 0 0 0-1.174.106l-6.763 8.874Z" fill="#5E6AD2"/>
  <path d="M3.07 13.31a.75.75 0 0 0-.03.918A9.75 9.75 0 0 0 9.772 20.96a.75.75 0 0 0 .918-.03l8.05-7.368a.75.75 0 0 0-.023-1.133l-7.37-6.182a.75.75 0 0 0-1.133.047L3.07 13.31Z" fill="#5E6AD2" opacity=".7"/>
  <path d="M3.52 16.115a.75.75 0 0 0-.148.847 9.754 9.754 0 0 0 3.666 3.666.75.75 0 0 0 .847-.148l6.858-6.858a.75.75 0 0 0 0-1.061L10.58 8.398a.75.75 0 0 0-1.061 0l-5.999 7.717Z" fill="#5E6AD2" opacity=".4"/>
</svg>
