<svg viewBox="0 0 24 24" fill="none" xmlns="http://www.w3.org/2000/svg">
  <path d="M4.5 18c-1.38 0-2.5-1.12-2.5-2.5 0-.97.56-1.84 1.43-2.25L9.5 10.5v4.38c0 1.73-1.13 3.12-2.5 3.12H4.5Z" fill="#FF3C00"/>
  <path d="M12 18c-1.38 0-2.5-1.12-2.5-2.5V8c0-1.38 1.12-2.5 2.5-2.5s2.5 1.12 2.5 2.5v7.5c0 1.38-1.12 2.5-2.5 2.5Z" fill="#FFCB00"/>
  <path d="M19.5 18c-1.38 0-2.5-1.12-2.5-2.5V6c0-1.38 1.12-2.5 2.5-2.5s2.5 1.12 2.5 2.5v9.5c0 1.38-1.12 2.5-2.5 2.5Z" fill="#00D647"/>
  <circle cx="4.5" cy="15.5" r="2.5" fill="#FF3C00"/>
</svg>
