<svg viewBox="0 0 24 24" fill="none" xmlns="http://www.w3.org/2000/svg">
  <path d="M22.5 5.25v13.5a1.5 1.5 0 0 1-1.5 1.5h-7.5V4.5H21a1.5 1.5 0 0 1 1.5.75v0Z" fill="#0078D4"/>
  <path d="M13.5 4.5V20.25h-3L1.5 16.5V7.5l9-3h3Z" fill="#0078D4"/>
  <path d="M7.5 9.375c-1.657 0-3 1.511-3 3.375s1.343 3.375 3 3.375 3-1.511 3-3.375-1.343-3.375-3-3.375Zm0 5.25c-.828 0-1.5-.84-1.5-1.875s.672-1.875 1.5-1.875 1.5.84 1.5 1.875-.672 1.875-1.5 1.875Z" fill="#fff"/>
  <path d="m22.5 8.25-4.5 3.375-4.5-3.375v-2.25l4.5 3 4.5-3v2.25Z" fill="#0078D4" opacity=".8"/>
</svg>
