<svg viewBox="0 0 24 24" fill="none" xmlns="http://www.w3.org/2000/svg">
  <path d="M10.006 5.415a4.195 4.195 0 0 1 3.045-1.306c1.56 0 2.954.9 3.69 2.205.63-.3 1.35-.465 2.1-.465a4.8 4.8 0 0 1 4.785 4.815c0 2.655-2.13 4.815-4.785 4.815-.39 0-.765-.045-1.125-.135a3.57 3.57 0 0 1-3.15 1.905c-.54 0-1.05-.12-1.515-.33a4.005 4.005 0 0 1-3.63 2.325c-1.665 0-3.105-1.02-3.72-2.475a3.6 3.6 0 0 1-.63.06A3.63 3.63 0 0 1 1.44 13.2c0-1.365.75-2.55 1.86-3.18a4.17 4.17 0 0 1-.195-1.26A4.2 4.2 0 0 1 7.29 4.575c1.095 0 2.085.42 2.835 1.11l-.119-.27Z" fill="#00A1E0"/>
</svg>
